<?xml version="1.0" encoding="utf-8"?>
<!-- Generator: Adobe Illustrator 22.0.0, SVG Export Plug-In . SVG Version: 6.00 Build 0)  -->
<svg version="1.1" id="Layer_1" xmlns="http://www.w3.org/2000/svg" xmlns:xlink="http://www.w3.org/1999/xlink" x="0px" y="0px"
	 viewBox="0 0 600 600" style="enable-background:new 0 0 600 600;" xml:space="preserve">
<style type="text/css">
	.st0{fill:#D1B3C4;}
	.st1{fill:#A37B9A;}
	.st2{fill:none;stroke:#666666;stroke-width:10.8975;stroke-miterlimit:10;}
</style>
<g>
	<g>
		<rect x="63.8" y="406" class="st0" width="24.9" height="140"/>
		<rect x="265.3" y="406" class="st0" width="29.6" height="166.2"/>
		<rect x="228" y="406" class="st0" width="29.6" height="116.4"/>
		<rect x="144.8" y="406" class="st0" width="24.9" height="140"/>
		<rect x="96.5" y="406" class="st0" width="40.5" height="166.2"/>
		<rect x="177.4" y="406" class="st0" width="42.7" height="155.7"/>
		
			<rect x="508.9" y="406" transform="matrix(-1 -1.224647e-16 1.224647e-16 -1 1042.7195 951.975)" class="st0" width="24.9" height="140"/>
		
			<rect x="471.5" y="406" transform="matrix(-1 -1.224647e-16 1.224647e-16 -1 972.664 968.8784)" class="st0" width="29.6" height="156.9"/>
		
			<rect x="302.7" y="406" transform="matrix(-1 -1.224647e-16 1.224647e-16 -1 634.9765 954.8673)" class="st0" width="29.6" height="142.9"/>
		
			<rect x="438.9" y="406" transform="matrix(-1 -1.224647e-16 1.224647e-16 -1 902.6086 951.975)" class="st0" width="24.9" height="140"/>
		
			<rect x="390.6" y="406" transform="matrix(-1 -1.224647e-16 1.224647e-16 -1 821.6557 986.0031)" class="st0" width="40.5" height="174"/>
		
			<rect x="340.1" y="406" transform="matrix(-1 -1.224647e-16 1.224647e-16 -1 722.8674 923.7316)" class="st0" width="42.7" height="111.7"/>
	</g>
	<rect x="63.8" y="68" class="st0" width="24.9" height="140"/>
	<rect x="305" y="75.6" class="st0" width="29.6" height="132.3"/>
	<rect x="267.6" y="41.7" class="st0" width="29.6" height="166.2"/>
	<rect x="133.9" y="68" class="st0" width="24.9" height="140"/>
	<rect x="342.3" y="60.5" class="st0" width="40.5" height="147.4"/>
	<rect x="217.1" y="97.4" class="st0" width="42.7" height="110.5"/>
	
		<rect x="508.9" y="97.4" transform="matrix(-1 -1.224647e-16 1.224647e-16 -1 1042.7195 305.3241)" class="st0" width="24.9" height="110.5"/>
	
		<rect x="471.5" y="41.7" transform="matrix(-1 -1.224647e-16 1.224647e-16 -1 972.664 249.643)" class="st0" width="29.6" height="166.2"/>
	
		<rect x="96.5" y="41.7" transform="matrix(-1 -1.224647e-16 1.224647e-16 -1 222.5632 249.643)" class="st0" width="29.6" height="166.2"/>
	
		<rect x="438.9" y="68" transform="matrix(-1 -1.224647e-16 1.224647e-16 -1 902.6086 275.8871)" class="st0" width="24.9" height="140"/>
	
		<rect x="390.6" y="18" transform="matrix(-1 -1.224647e-16 1.224647e-16 -1 821.6557 225.928)" class="st0" width="40.5" height="189.9"/>
	
		<rect x="166.5" y="52.3" transform="matrix(-1 -1.224647e-16 1.224647e-16 -1 375.8391 260.1974)" class="st0" width="42.7" height="155.7"/>
	<g>
		<path class="st1" d="M307.8,381.4v11.1h-67.7l-16.7-38.9h-75.5l-16.7,38.9H63.4v-11.1H93l73.1-168.9H205l72.9,168.9H307.8z
			 M185.7,266l-22.7,52.3h45.1L185.7,266z"/>
		<path class="st1" d="M537,381.4v11.1H336.4v-11.1h25v-16.5l94.3-117.7h-91.2v-34.8h146v27.8l-94,117.2H512v24H537z"/>
	</g>
	<line class="st2" x1="61.5" y1="216.5" x2="536.3" y2="216.5"/>
</g>
</svg>
