<?xml version="1.0" encoding="utf-8"?>
<!-- Generator: Adobe Illustrator 22.0.0, SVG Export Plug-In . SVG Version: 6.00 Build 0)  -->
<svg version="1.1" id="Layer_1" xmlns="http://www.w3.org/2000/svg" xmlns:xlink="http://www.w3.org/1999/xlink" x="0px" y="0px"
	 viewBox="0 0 600 520" style="enable-background:new 0 0 600 520;" xml:space="preserve">
<style type="text/css">
	.st0{fill:#DDB892;}
	.st1{fill:#DDB892;}
	.st2{fill:#9D6B53;}
	.st3{fill:#7f5539;}
</style>
<path class="st0" d="M277.6,260.1c-18.2,0-28-2.9-29.5-8.8l-10.3-40.4H188l-9.1,38.8c-1.3,6.5-11.3,9.7-30.1,9.7
	c-10,0-17.4-0.6-22.2-1.7c-4.8-1.1-7.2-2-7.2-2.7l55.5-212.1c0-1.7,14.3-2.5,42.9-2.5c28.6,0,42.9,0.8,42.9,2.5l54.2,212.4
	c0,1.5-4.8,2.6-14.4,3.4C290.9,259.6,283.2,260.1,277.6,260.1z M195.8,171.1h32.9l-14.1-64.9h-1.9L195.8,171.1z"/>
<path class="st1" d="M390.9,205.5c-3.6,0-6.1-4.8-7.5-14.4c-0.6-4-0.9-8.4-0.9-13.2c0-4.8,0.5-9.8,1.6-15c1.9-9.6,5-14.4,9.4-14.4
	h115.9c12.7,0,21,11.6,24.8,34.8c0.8,5,1.3,8.7,1.3,11l-73.3,111.2h57.3c0.2,0,0.4,0,0.6,0c4.6,0,7.8,5,9.7,15
	c0.8,4.8,1.3,9.8,1.3,15c0,5.2-0.6,10.8-1.9,16.6c-2.3,10.4-5.8,15.7-10.7,15.7H396.6c-1.9,0-5.3-6.3-10.2-19
	c-4.9-12.6-7.4-20.5-7.4-23.7s0.3-5.1,0.9-6l73.3-113.7H390.9z"/>
<g>
	<path class="st2" d="M368.8,316.7c0-15.8,4.8-30.4,13-42.6H56.3v85.3h325.4C373.6,347.1,368.8,332.4,368.8,316.7z"/>
	<path d="M86.7,359.3c-15.8,0-28.6-12.8-28.6-28.6v-28c0-15.8,12.8-28.6,28.6-28.6h300.8v-10H72c-19.7,0-35.7,16-35.7,35.7v33.9
		c0,19.7,16,35.7,35.7,35.7h315.5v-10H86.7z"/>
</g>
<g>
	<path class="st2" d="M243.4,423.7c0,15.8-4.8,30.4-13,42.6h325.4v-85.3H230.4C238.6,393.4,243.4,408,243.4,423.7z"/>
	<path class="st3" d="M525.5,381.1c15.8,0,28.6,12.8,28.6,28.6v28c0,15.8-12.8,28.6-28.6,28.6H224.7v10h315.5
		c19.7,0,35.7-16,35.7-35.7v-33.9c0-19.7-16-35.7-35.7-35.7H224.7v10H525.5z"/>
</g>
</svg>
